<?xml version="1.0" encoding="utf-8"?>
<!-- Generator: Adobe Illustrator 23.0.6, SVG Export Plug-In . SVG Version: 6.00 Build 0)  -->
<svg version="1.1" id="Layer_1" xmlns="http://www.w3.org/2000/svg" xmlns:xlink="http://www.w3.org/1999/xlink" x="0px" y="0px"
	 viewBox="0 0 44.4 46.6" style="enable-background:new 0 0 44.4 46.6;" xml:space="preserve">
<style type="text/css">
	.st0{fill:none;stroke:#8C8C8C;stroke-miterlimit:10;}
</style>
<g>
	<path class="st0" d="M22.7,0.5c1.9,0,4,0,6.1,0.5c0.7,0.2,1.4,0.4,2,0.8c2.2,1.5,4.4,2.9,6.3,4.8c3.4,3.3,5.4,7.4,6.3,12
		c1.8,9.4-0.6,17.9-6.5,25.3c-0.6,0.8-1.4,1.3-2.1,1.9c-0.4,0.3-0.8,0.2-1-0.2c-0.1-0.2-0.3-0.5-0.3-0.8c-0.1-0.8-0.1-1.7-0.1-2.5
		c0-0.7,0.3-1.3,0.9-1.9c1.7-1.7,3.3-3.4,4.5-5.4c1.6-2.7,2.2-5.6,2.4-8.7c0.3-5.3-0.9-10.2-4-14.5c-2.5-3.5-5.8-5.7-10-6.6
		c-2.4-0.5-4.7-0.4-7.1-0.3c-4.7,0.2-8.7,2-11.7,5.7C5.8,13.7,4,17.3,3.5,21.5C3,25.9,3.3,30.2,5.2,34.3c1.1,2.3,2.7,4.1,4.5,5.8
		c1.7,1.5,1.6,3.3,1.3,5.1c-0.2,1-0.7,1.1-1.5,0.5c-3-2.4-4.8-5.8-6.4-9.2c-2.2-4.8-2.9-10-2.4-15.2c0.3-3.4,1.4-6.5,3-9.5
		c1.9-3.7,4.9-6.3,8.2-8.7c1.7-1.2,3.5-2.1,5.6-2.3C19.2,0.5,20.8,0.5,22.7,0.5z"/>
</g>
</svg>
